<svg width="250" height="250" viewBox="0 0 250 250" fill="none" xmlns="http://www.w3.org/2000/svg">
<g clip-path="url(#clip0)">
<rect width="250" height="250" fill="white"/>
<path d="M-79 0H328V250H-79V0Z" fill="#ECEFF1"/>
<path d="M-79 0H328V27.7778H-79V0ZM-79 55.5556H328V83.3333H-79V55.5556ZM-79 111.111H328V138.889H-79V111.111ZM-79 166.667H328V194.444H-79V166.667ZM-79 222.222H328V250H-79V222.222Z" fill="#F44336"/>
<path d="M-79 0H115V139H-79V0Z" fill="#3F51B5"/>
<path d="M-58.148 18.5185L-53.861 27.6667L-44.2591 29.1296L-51.2036 36.2593L-49.5554 46.2963L-58.148 41.5556L-66.7406 46.2963L-65.0925 36.2593L-72.0369 29.1296L-62.4351 27.6667L-58.148 18.5185ZM-21.111 18.5185L-16.824 27.6667L-7.22211 29.1296L-14.1666 36.2593L-12.5184 46.2963L-21.111 41.5556L-29.7036 46.2963L-28.0554 36.2593L-34.9999 29.1296L-25.398 27.6667L-21.111 18.5185ZM15.926 18.5185L20.2131 27.6667L29.8149 29.1296L22.8705 36.2593L24.5186 46.2963L15.926 41.5556L7.33344 46.2963L8.98159 36.2593L2.03715 29.1296L11.639 27.6667L15.926 18.5185ZM52.9631 18.5185L57.2501 27.6667L66.852 29.1296L59.9075 36.2593L61.5557 46.2963L52.9631 41.5556L44.3705 46.2963L46.0186 36.2593L39.0742 29.1296L48.676 27.6667L52.9631 18.5185ZM87.6853 18.5185L91.9723 27.6667L101.574 29.1296L94.6297 36.2593L96.2779 46.2963L87.6853 41.5556L79.0927 46.2963L80.7409 36.2593L73.7964 29.1296L83.3983 27.6667L87.6853 18.5185ZM-58.148 92.5926L-53.861 101.741L-44.2591 103.204L-51.2036 110.333L-49.5554 120.37L-58.148 115.63L-66.7406 120.37L-65.0925 110.333L-72.0369 103.204L-62.4351 101.741L-58.148 92.5926ZM-21.111 92.5926L-16.824 101.741L-7.22211 103.204L-14.1666 110.333L-12.5184 120.37L-21.111 115.63L-29.7036 120.37L-28.0554 110.333L-34.9999 103.204L-25.398 101.741L-21.111 92.5926ZM15.926 92.5926L20.2131 101.741L29.8149 103.204L22.8705 110.333L24.5186 120.37L15.926 115.63L7.33344 120.37L8.98159 110.333L2.03715 103.204L11.639 101.741L15.926 92.5926ZM52.9631 92.5926L57.2501 101.741L66.852 103.204L59.9075 110.333L61.5557 120.37L52.9631 115.63L44.3705 120.37L46.0186 110.333L39.0742 103.204L48.676 101.741L52.9631 92.5926ZM87.6853 92.5926L91.9723 101.741L101.574 103.204L94.6297 110.333L96.2779 120.37L87.6853 115.63L79.0927 120.37L80.7409 110.333L73.7964 103.204L83.3983 101.741L87.6853 92.5926ZM-48.8888 55.5556L-44.6017 64.7037L-34.9999 66.1667L-41.9443 73.2963L-40.2962 83.3333L-48.8888 78.5926L-57.4814 83.3333L-55.8332 73.2963L-62.7777 66.1667L-53.1758 64.7037L-48.8888 55.5556ZM-11.8517 55.5556L-7.5647 64.7037L2.03715 66.1667L-4.9073 73.2963L-3.25914 83.3333L-11.8517 78.5926L-20.4443 83.3333L-18.7962 73.2963L-25.7406 66.1667L-16.1388 64.7037L-11.8517 55.5556ZM25.1853 55.5556L29.4723 64.7037L39.0742 66.1667L32.1297 73.2963L33.7779 83.3333L25.1853 78.5926L16.5927 83.3333L18.2409 73.2963L11.2964 66.1667L20.8983 64.7037L25.1853 55.5556ZM62.2223 55.5556L66.5094 64.7037L76.1112 66.1667L69.1668 73.2963L70.8149 83.3333L62.2223 78.5926L53.6297 83.3333L55.2779 73.2963L48.3334 66.1667L57.9353 64.7037L62.2223 55.5556ZM96.9446 55.5556L101.232 64.7037L110.833 66.1667L103.889 73.2963L105.537 83.3333L96.9446 78.5926L88.352 83.3333L90.0001 73.2963L83.0557 66.1667L92.6575 64.7037L96.9446 55.5556Z" fill="white"/>
<g filter="url(#filter0_iiii)">
<rect width="250" height="250" fill="black" fill-opacity="0.1"/>
</g>
<path d="M48.5312 101.625C47.6979 101.521 46.8646 101 46.0312 100.062C45.3021 99.125 44.625 98.0833 44 96.9375C43.2708 95.6875 42.5938 94.2292 41.9688 92.5625C41.2396 90.4792 40.7708 88.7083 40.5625 87.25C40.4583 85.6875 40.5625 84.3333 40.875 83.1875C41.1875 82.0417 41.7083 81 42.4375 80.0625C43.1667 79.125 44.0521 78.1875 45.0938 77.25C46.3438 76.1042 48.6354 74.6458 51.9688 72.875C55.3021 71.1042 59.1562 69.5938 63.5312 68.3438V66.7812C63.5312 66.2604 63.5312 65.7917 63.5312 65.375C63.6354 64.9583 63.6875 64.5417 63.6875 64.125L76.0312 60.0625C76.8646 59.75 77.75 59.75 78.6875 60.0625C79.625 60.2708 79.9896 61.2083 79.7812 62.875C79.7812 63.3958 79.7292 63.9167 79.625 64.4375C79.625 64.9583 79.5729 65.5312 79.4688 66.1562C86.1354 66.3646 92.1771 67.7188 97.5938 70.2188C103.115 72.7188 107.802 76.1562 111.656 80.5312C115.615 84.8021 118.688 89.9062 120.875 95.8438C123.062 101.781 124.156 108.24 124.156 115.219C124.156 125.531 122.698 134.49 119.781 142.094C116.865 149.698 113.062 156.156 108.375 161.469C103.688 166.781 98.375 171.052 92.4375 174.281C86.5 177.51 80.5625 179.854 74.625 181.312C73.8958 182.042 72.9062 182.771 71.6562 183.5C70.4062 184.229 69.0521 184.854 67.5938 185.375C66.1354 185.896 64.625 186.26 63.0625 186.469C61.6042 186.781 60.3021 186.833 59.1562 186.625C59.1562 186.417 59.1562 186.104 59.1562 185.688C59.2604 185.271 59.3125 184.906 59.3125 184.594C59.3125 184.177 59.3646 183.76 59.4688 183.344C55.4062 183.552 51.8646 183.344 48.8438 182.719C48.1146 182.302 47.4375 181.521 46.8125 180.375C46.5 179.958 46.2396 179.438 46.0312 178.812C45.7188 178.292 45.5104 177.771 45.4062 177.25C45.0938 176.312 45.0938 175.167 45.4062 173.812C50.5104 174.438 55.4062 174.438 60.0938 173.812C60.4062 169.333 60.7188 163.917 61.0312 157.562C61.3438 151.104 61.6562 144.125 61.9688 136.625C62.1771 132.25 62.3333 127.615 62.4375 122.719C62.6458 117.719 62.8021 112.771 62.9062 107.875C63.0104 102.875 63.1146 98.0312 63.2188 93.3438C63.3229 88.6562 63.375 84.3333 63.375 80.375C58.375 82.3542 54.4688 85.2188 51.6562 88.9688C48.9479 92.6146 47.9062 96.8333 48.5312 101.625ZM76.5 102.562C76.0833 109.542 75.7708 116.365 75.5625 123.031C75.3542 129.698 75.1979 136 75.0938 141.938C75.0938 147.875 75.1458 153.292 75.25 158.188C75.3542 162.979 75.4583 167.042 75.5625 170.375C85.5625 166.625 93.5312 160.323 99.4688 151.469C105.51 142.615 108.531 131.521 108.531 118.188C108.531 112.354 107.802 107.042 106.344 102.25C104.99 97.3542 103.01 93.1875 100.406 89.75C97.8021 86.2083 94.6771 83.4479 91.0312 81.4688C87.3854 79.4896 83.375 78.3958 79 78.1875H78.375C78.0625 81.3125 77.75 84.9062 77.4375 88.9688C77.125 92.9271 76.8125 97.4583 76.5 102.562ZM138.375 98.5C136.917 98.0833 135.406 97.4583 133.844 96.625C132.385 95.6875 131.031 94.6458 129.781 93.5C128.635 92.25 127.75 90.8958 127.125 89.4375C126.5 87.9792 126.344 86.4167 126.656 84.75C127.281 81.3125 129.26 78.0833 132.594 75.0625C135.927 72.0417 140.406 69.6458 146.031 67.875V67.4062C146.135 66.2604 146.865 65.1146 148.219 63.9688C149.677 62.7188 151.448 61.8854 153.531 61.4688C155.51 61.0521 156.917 61.0521 157.75 61.4688C158.688 61.8854 159.156 62.4583 159.156 63.1875C159.156 63.3958 159.104 63.6562 159 63.9688C159 64.1771 159 64.3854 159 64.5938V65.375C164.104 64.9583 169.781 65.1146 176.031 65.8438C183.531 66.7812 189.625 68.5521 194.312 71.1562C199 73.7604 202.542 76.7812 204.938 80.2188C207.333 83.5521 208.792 87.0417 209.312 90.6875C209.938 94.3333 209.938 97.6667 209.312 100.688C208.688 104.229 207.542 107.458 205.875 110.375C204.208 113.188 202.229 115.74 199.938 118.031C197.646 120.219 195.094 122.146 192.281 123.812C189.469 125.479 186.5 126.885 183.375 128.031C186.708 128.76 189.521 129.958 191.812 131.625C194.208 133.188 196.135 135.062 197.594 137.25C199.052 139.438 200.094 141.885 200.719 144.594C201.344 147.302 201.552 150.062 201.344 152.875C201.135 157.25 199.99 161.365 197.906 165.219C195.927 168.969 193.219 172.25 189.781 175.062C186.344 177.875 182.229 180.062 177.438 181.625C172.75 183.188 167.542 183.865 161.812 183.656H159.938C158.375 185.01 156.656 186 154.781 186.625C153.01 187.354 151.292 187.875 149.625 188.188C147.75 188.604 145.875 188.76 144 188.656C144 187.927 144 187.146 144 186.312C144.104 185.583 144.156 184.854 144.156 184.125C144.156 183.292 144.208 182.458 144.312 181.625C143.062 181.417 141.865 181.104 140.719 180.688C139.677 180.375 138.583 180.01 137.438 179.594C136.396 179.281 135.458 178.917 134.625 178.5C134.208 177.875 133.896 177.094 133.688 176.156C133.479 175.323 133.323 174.385 133.219 173.344C133.219 172.406 133.427 171.312 133.844 170.062C137.073 171.312 140.771 172.25 144.938 172.875C145.146 167.562 145.302 161.26 145.406 153.969C145.615 146.677 145.719 139.021 145.719 131C145.719 121.938 145.719 113.031 145.719 104.281C145.823 95.5312 145.875 88.0312 145.875 81.7812C142.854 83.3438 140.51 85.4792 138.844 88.1875C137.177 90.8958 137.021 94.3333 138.375 98.5ZM186.5 153.656C186.917 149.073 186.24 145.427 184.469 142.719C182.698 139.906 180.354 137.823 177.438 136.469C174.625 135.01 171.5 134.125 168.062 133.812C164.729 133.5 161.708 133.448 159 133.656C159.208 142.302 159.365 150.167 159.469 157.25C159.573 164.229 159.677 169.958 159.781 174.438C163.01 174.542 166.135 174.177 169.156 173.344C172.177 172.51 174.885 171.208 177.281 169.438C179.781 167.667 181.865 165.479 183.531 162.875C185.198 160.167 186.188 157.094 186.5 153.656ZM158.688 78.1875C158.479 83.5 158.375 89.8021 158.375 97.0938C158.375 104.385 158.479 112.51 158.688 121.469C158.688 122.302 158.688 123.135 158.688 123.969C158.688 124.698 158.74 125.479 158.844 126.312C162.594 126 166.5 125.115 170.562 123.656C174.625 122.094 178.323 120.062 181.656 117.562C185.094 115.062 187.906 112.146 190.094 108.812C192.281 105.375 193.375 101.625 193.375 97.5625C193.375 94.4375 192.542 91.6771 190.875 89.2812C189.208 86.7812 186.969 84.6979 184.156 83.0312C181.448 81.3646 178.271 80.1146 174.625 79.2812C171.083 78.4479 167.385 78.0312 163.531 78.0312C162.698 78.0312 161.865 78.0312 161.031 78.0312C160.302 78.0312 159.521 78.0833 158.688 78.1875Z" fill="black"/>
</g>
<defs>
<filter id="filter0_iiii" x="-4" y="-4" width="258" height="258" filterUnits="userSpaceOnUse" color-interpolation-filters="sRGB">
<feFlood flood-opacity="0" result="BackgroundImageFix"/>
<feBlend mode="normal" in="SourceGraphic" in2="BackgroundImageFix" result="shape"/>
<feColorMatrix in="SourceAlpha" type="matrix" values="0 0 0 0 0 0 0 0 0 0 0 0 0 0 0 0 0 0 127 0" result="hardAlpha"/>
<feOffset dx="-4" dy="4"/>
<feGaussianBlur stdDeviation="2"/>
<feComposite in2="hardAlpha" operator="arithmetic" k2="-1" k3="1"/>
<feColorMatrix type="matrix" values="0 0 0 0 0 0 0 0 0 0 0 0 0 0 0 0 0 0 0.25 0"/>
<feBlend mode="normal" in2="shape" result="effect1_innerShadow"/>
<feColorMatrix in="SourceAlpha" type="matrix" values="0 0 0 0 0 0 0 0 0 0 0 0 0 0 0 0 0 0 127 0" result="hardAlpha"/>
<feOffset dx="-4" dy="-4"/>
<feGaussianBlur stdDeviation="2"/>
<feComposite in2="hardAlpha" operator="arithmetic" k2="-1" k3="1"/>
<feColorMatrix type="matrix" values="0 0 0 0 0 0 0 0 0 0 0 0 0 0 0 0 0 0 0.25 0"/>
<feBlend mode="normal" in2="effect1_innerShadow" result="effect2_innerShadow"/>
<feColorMatrix in="SourceAlpha" type="matrix" values="0 0 0 0 0 0 0 0 0 0 0 0 0 0 0 0 0 0 127 0" result="hardAlpha"/>
<feOffset dx="4" dy="-4"/>
<feGaussianBlur stdDeviation="2"/>
<feComposite in2="hardAlpha" operator="arithmetic" k2="-1" k3="1"/>
<feColorMatrix type="matrix" values="0 0 0 0 0 0 0 0 0 0 0 0 0 0 0 0 0 0 0.25 0"/>
<feBlend mode="normal" in2="effect2_innerShadow" result="effect3_innerShadow"/>
<feColorMatrix in="SourceAlpha" type="matrix" values="0 0 0 0 0 0 0 0 0 0 0 0 0 0 0 0 0 0 127 0" result="hardAlpha"/>
<feOffset dx="4" dy="4"/>
<feGaussianBlur stdDeviation="2"/>
<feComposite in2="hardAlpha" operator="arithmetic" k2="-1" k3="1"/>
<feColorMatrix type="matrix" values="0 0 0 0 0 0 0 0 0 0 0 0 0 0 0 0 0 0 0.25 0"/>
<feBlend mode="normal" in2="effect3_innerShadow" result="effect4_innerShadow"/>
</filter>
<clipPath id="clip0">
<rect width="250" height="250" fill="white"/>
</clipPath>
</defs>
</svg>
